<svg width="424" height="392" viewBox="0 0 424 392" fill="none" xmlns="http://www.w3.org/2000/svg">
<path d="M261.565 41.6904L295.867 2.03453C299.043 -1.60624 305.004 -2.10391e-05 305.932 4.71157L315.819 56.2178C316.498 59.6801 320.067 61.7504 323.387 60.6082L372.93 43.4037C377.498 41.8332 381.889 46.1878 380.283 50.7566L363.078 100.3C361.936 103.619 364.006 107.224 367.468 107.867L418.975 117.754C423.722 118.646 425.328 124.643 421.652 127.82L381.996 162.121C379.319 164.442 379.319 168.546 381.996 170.866L421.652 205.168C425.293 208.345 423.686 214.306 418.975 215.234L367.468 225.121C364.006 225.799 361.936 229.369 363.078 232.688L380.283 282.231C381.853 286.8 377.498 291.19 372.93 289.584L323.387 272.415C320.067 271.273 316.462 273.344 315.819 276.806L305.932 328.312C305.04 333.059 299.043 334.666 295.867 330.989L261.565 291.298C259.245 288.621 255.14 288.621 252.82 291.298L218.518 330.953C215.341 334.594 209.38 332.988 208.452 328.276L198.565 276.77C197.887 273.308 194.318 271.238 190.998 272.38L141.455 289.584C136.886 291.155 132.496 286.8 134.102 282.231L151.306 232.688C152.449 229.369 150.378 225.764 146.916 225.121L95.4099 215.234C90.6626 214.342 89.0564 208.345 92.7328 205.168L132.389 170.866C135.066 168.546 135.066 164.442 132.389 162.121L92.6971 127.82C89.0564 124.643 90.6626 118.682 95.3742 117.754L146.88 107.867C150.343 107.189 152.413 103.619 151.271 100.3L134.066 50.7566C132.496 46.1878 136.85 41.7975 141.419 43.4037L190.962 60.6082C194.282 61.7504 197.887 59.6801 198.529 56.2178L208.417 4.71157C209.309 -0.0357149 215.306 -1.64194 218.482 2.03453L252.784 41.6904C255.104 44.3674 259.245 44.3674 261.565 41.6904Z" fill="#F9A825"/>
<path opacity="0.2" d="M217.054 16.7047L244.717 48.6864C247.858 52.3272 252.391 54.3974 257.174 54.3974C261.957 54.3974 266.526 52.3272 269.632 48.6864L297.33 16.7047L305.29 58.2524C306.789 65.9979 313.571 71.6376 321.495 71.6376C323.351 71.6376 325.171 71.3163 326.92 70.7095L366.862 56.8246L352.977 96.7661C351.406 101.299 351.87 106.261 354.262 110.437C356.653 114.577 360.722 117.468 365.434 118.397L406.981 126.356L375 154.019C371.359 157.16 369.289 161.693 369.289 166.476C369.289 171.259 371.359 175.828 375 178.933L406.981 206.596L365.434 214.556C360.722 215.448 356.653 218.339 354.262 222.516C351.87 226.656 351.406 231.653 352.977 236.186L366.862 276.128L326.92 262.243C325.171 261.636 323.351 261.315 321.495 261.315C313.606 261.315 306.789 266.954 305.29 274.7L297.33 316.283L269.667 284.302C266.526 280.661 261.993 278.591 257.21 278.591C252.427 278.591 247.858 280.661 244.753 284.302L217.054 316.283L209.095 274.736C207.596 266.99 200.814 261.35 192.89 261.35C191.034 261.35 189.213 261.672 187.464 262.278L147.523 276.163L161.408 236.222C162.978 231.689 162.514 226.727 160.123 222.551C157.731 218.411 153.662 215.52 148.951 214.591L107.403 206.632L139.385 178.969C143.025 175.828 145.096 171.295 145.096 166.512C145.096 161.729 143.025 157.16 139.385 154.055L107.403 126.392L148.951 118.432C153.662 117.54 157.731 114.649 160.123 110.472C162.514 106.332 162.978 101.335 161.408 96.8017L147.523 56.8603L187.464 70.7452C189.213 71.352 191.034 71.6733 192.89 71.6733C200.778 71.6733 207.596 66.0336 209.095 58.2881L217.054 16.7047ZM300.221 0C298.651 0 297.08 0.642488 295.867 1.99885L261.565 41.6547C260.423 42.9754 258.816 43.6536 257.174 43.6536C255.532 43.6536 253.962 42.9754 252.784 41.6547L218.518 2.03455C217.34 0.642488 215.734 0.0356913 214.163 0.0356913C211.558 0.0356913 209.023 1.78469 208.452 4.74728L198.565 56.2535C198.03 59.0733 195.567 60.9651 192.89 60.9651C192.247 60.9651 191.605 60.858 190.998 60.6439L141.455 43.4394C140.812 43.2253 140.17 43.1182 139.527 43.1182C135.744 43.1182 132.746 46.9017 134.102 50.7924L151.306 100.335C152.449 103.655 150.378 107.26 146.916 107.903L95.4098 117.79C90.6625 118.682 89.0563 124.679 92.7328 127.855L132.389 162.157C135.066 164.477 135.066 168.582 132.389 170.902L92.7328 205.204C89.092 208.381 90.6982 214.342 95.4098 215.27L146.916 225.157C150.378 225.835 152.449 229.404 151.306 232.724L134.102 282.267C132.746 286.193 135.78 289.941 139.527 289.941C140.17 289.941 140.812 289.834 141.455 289.62L190.998 272.416C191.64 272.201 192.283 272.094 192.89 272.094C195.567 272.094 198.03 273.986 198.565 276.806L208.452 328.312C209.023 331.275 211.558 333.024 214.163 333.024C215.734 333.024 217.304 332.381 218.518 331.025L252.82 291.298C253.962 289.977 255.568 289.299 257.21 289.299C258.852 289.299 260.423 289.977 261.6 291.298L295.902 330.953C297.08 332.346 298.686 332.952 300.257 332.952C302.863 332.952 305.397 331.203 305.968 328.241L315.855 276.734C316.39 273.915 318.853 272.023 321.53 272.023C322.173 272.023 322.815 272.13 323.422 272.344L372.965 289.549C373.608 289.763 374.25 289.87 374.893 289.87C378.676 289.87 381.675 286.086 380.318 282.196L363.114 232.653C361.972 229.333 364.042 225.728 367.504 225.085L419.01 215.198C423.758 214.306 425.364 208.309 421.687 205.133L382.031 170.831C379.354 168.511 379.354 164.406 382.031 162.086L421.687 127.784C425.328 124.607 423.722 118.646 419.01 117.718L367.504 107.831C364.042 107.153 361.972 103.584 363.114 100.264L380.318 50.721C381.675 46.7946 378.641 43.0468 374.893 43.0468C374.25 43.0468 373.608 43.1539 372.965 43.368L323.386 60.6082C322.744 60.8223 322.101 60.9294 321.495 60.9294C318.818 60.9294 316.355 59.0376 315.819 56.2178L305.932 4.71159C305.361 1.749 302.827 0 300.221 0Z" fill="#424242"/>
<path d="M257.888 272.452C316.397 272.452 363.827 225.021 363.827 166.513C363.827 108.004 316.397 60.5732 257.888 60.5732C199.379 60.5732 151.949 108.004 151.949 166.513C151.949 225.021 199.379 272.452 257.888 272.452Z" fill="url(#paint0_radial_995_79)"/>
<path d="M253.462 266.027C251.784 266.027 250.107 266.134 248.501 266.348C249.786 261.993 250.499 257.424 250.499 252.677C250.499 226.157 229.012 204.669 202.491 204.669C191.212 204.669 180.861 208.595 172.651 215.127C161.622 194.211 139.67 179.933 114.363 179.933C77.9911 179.933 48.508 209.416 48.508 245.788C48.508 247.109 48.5436 248.394 48.615 249.679C21.2378 252.998 0 276.342 0 304.647C0 334.952 24.3075 359.545 54.4688 360.08C64.5702 377.641 84.7015 389.67 107.974 389.849C130.461 390.027 150.2 379.033 160.872 362.579C169.474 371.966 181.789 377.927 195.531 377.927C215.234 377.927 232.046 365.827 239.077 348.658C243.575 350.264 248.394 351.192 253.462 351.192C276.984 351.192 296.045 332.132 296.045 308.609C296.045 285.087 276.984 266.027 253.462 266.027Z" fill="url(#paint1_radial_995_79)"/>
<path opacity="0.2" d="M114.363 190.605C134.887 190.605 153.591 201.884 163.157 220.088C164.656 222.908 167.297 224.906 170.438 225.585C171.152 225.727 171.902 225.799 172.651 225.799C175.043 225.799 177.398 224.978 179.326 223.479C186.001 218.16 194.032 215.376 202.491 215.376C223.051 215.376 239.791 232.117 239.791 252.676C239.791 256.246 239.256 259.815 238.221 263.313C237.186 266.775 237.971 270.488 240.291 273.236C242.326 275.663 245.36 277.055 248.501 277.055C248.929 277.055 249.322 277.019 249.75 276.984C251.142 276.805 252.356 276.734 253.498 276.734C271.059 276.734 285.372 291.011 285.372 308.609C285.372 326.17 271.095 340.483 253.498 340.483C249.893 340.483 246.252 339.841 242.718 338.556C241.54 338.127 240.291 337.913 239.113 337.913C234.866 337.913 230.904 340.447 229.19 344.588C223.586 358.33 210.38 367.218 195.567 367.218C185.287 367.218 175.757 363.006 168.761 355.332C166.726 353.083 163.835 351.834 160.837 351.834C160.551 351.834 160.265 351.834 159.944 351.869C156.625 352.155 153.626 354.654 151.842 357.438C142.918 371.251 126.285 380.532 108.509 380.532H108.081C89.3417 380.532 72.3871 370.323 63.7849 355.403C61.8931 352.155 58.4665 349.764 54.683 349.692C30.4469 349.264 10.7082 329.061 10.7082 304.825C10.7082 282.266 27.5914 263.135 49.9357 260.386C55.5396 259.708 59.6444 254.711 59.3232 249.071C59.2518 247.965 59.2161 246.858 59.2161 245.752C59.2161 215.34 83.952 190.605 114.363 190.605ZM114.363 179.896C77.9911 179.896 48.508 209.38 48.508 245.752C48.508 247.072 48.5436 248.393 48.6507 249.678C21.2378 253.033 0 276.341 0 304.647C0 334.951 24.3075 360.222 54.4688 360.757C64.5702 378.319 84.7015 391.24 107.974 391.24H108.474C130.747 391.24 150.235 379.568 160.801 363.256C169.403 372.679 181.753 378.283 195.495 378.283C215.198 378.283 232.01 366.004 239.042 348.836C243.539 350.442 248.358 351.298 253.426 351.298C276.949 351.298 296.009 332.202 296.009 308.68C296.009 285.158 276.984 266.061 253.462 266.061C251.784 266.061 250.107 266.169 248.501 266.383C249.786 262.028 250.499 257.459 250.499 252.712C250.499 226.191 229.012 204.704 202.491 204.704C191.212 204.704 180.861 208.63 172.651 215.162C161.622 194.174 139.67 179.896 114.363 179.896Z" fill="#424242"/>
<defs>
<radialGradient id="paint0_radial_995_79" cx="0" cy="0" r="1" gradientUnits="userSpaceOnUse" gradientTransform="translate(241.158 141.409) scale(103.905 103.905)">
<stop offset="0.2173" stop-color="#FFD54F"/>
<stop offset="0.86" stop-color="#FFC107"/>
</radialGradient>
<radialGradient id="paint1_radial_995_79" cx="0" cy="0" r="1" gradientUnits="userSpaceOnUse" gradientTransform="translate(108.085 159.67) scale(298.518 298.518)">
<stop offset="0.2636" stop-color="#E3F2FD"/>
<stop offset="0.9167" stop-color="#90CAF9"/>
</radialGradient>
</defs>
</svg>
